# xmcd
#
# Track frame offsets: 
#        150
#        28455
#        57815
#        87115
#        109627
#        130570
#        160245
#        193127
#        218902
#
# Disc length: 3374 seconds
#
# Revision: 10
# Processed by: cddbd v1.5.2PL0 Copyright (c) Steve Scherf et al.
# Submitted via: ExactAudioCopy v0.99pb3
#
DISCID=770d2c09
DTITLE=Brad Mehldau - The Art Of The Trio, Vol. 1
DYEAR=1997
DGENRE=Jazz
TTITLE0=Blame It On My Youth
TTITLE1=I Didn't Know What Time It Was
TTITLE2=Ron's Place
TTITLE3=Blackbird
TTITLE4=Lament for Linus
TTITLE5=Mignon's Song
TTITLE6=I Fall In Love Too Easily
TTITLE7=Lucid
TTITLE8=Nobody Else But Me
EXTD=YEAR: 1997
EXTT0=
EXTT1=
EXTT2=
EXTT3=
EXTT4=
EXTT5=
EXTT6=
EXTT7=
EXTT8=
PLAYORDER=
